<?xml version="1.0" encoding="iso-8859-1" standalone="no" ?> 
<?xml-stylesheet href="PS5.css" type="text/css" ?> 
<svg xmlns="http://www.w3.org/2000/svg" xmlns:xlink="http://www.w3.org/1999/xlink" width="114.60919pt" height="114.60919pt" viewBox="-57.3046 -57.3046 114.60919 114.60919 "> 
<g transform="translate(0, 57.3046 ) scale(1,-1) translate(0,57.3046 )"> 
            <g stroke="#000" fill="#000">
 <g stroke-width="0.4">
 <g stroke-width="0.8">
 <path d=" M 0.0 0.0 M 56.9046 0.0 C 56.9046 31.42795 31.42795 56.9046 0.0 56.9046 C -31.42795 56.9046 -56.9046 31.42795 -56.9046 0.0 C -56.9046 -31.42795 -31.42795 -56.9046 0.0 -56.9046 C 31.42795 -56.9046 56.9046 -31.42795 56.9046 0.0 Z M 0.0 0.0  " fill="none"></path>
 </g>
 <path d=" M -56.9046 -0.56898 L -54.55733 -0.59348 L -52.21007 -0.62021 L -49.86281 -0.64938 L -47.51555 -0.68143 L -45.16827 -0.71686 L -42.82101 -0.7562 L -40.47375 -0.79996 L -38.1265 -0.84927 L -35.77924 -0.90501 L -33.43196 -0.96858 L -31.0847 -1.0416 L -28.73744 -1.1267 L -26.39018 -1.22707 L -24.04292 -1.34673 L -21.69565 -1.49251 L -19.34839 -1.67363 L -17.00113 -1.90451 L -14.65387 -2.20946 L -12.3066 -2.63127 L -9.95934 -3.25098 L -7.61208 -4.25308 L -5.26482 -6.1503 L -2.91756 -11.09993 L -0.57028 -56.78069  " fill="none"></path>
 <path d=" M -56.9046 -2.84523 L -54.65215 -2.96245 L -52.3997 -3.08983 L -50.14726 -3.22858 L -47.89482 -3.38036 L -45.64236 -3.54724 L -43.38992 -3.7314 L -41.13748 -3.93571 L -38.88504 -4.16373 L -36.63258 -4.41978 L -34.38014 -4.70927 L -32.1277 -5.03949 L -29.87526 -5.41946 L -27.62282 -5.86133 L -25.37036 -6.3817 L -23.11792 -7.00331 L -20.86548 -7.7596 L -18.61304 -8.69875 L -16.36058 -9.8963 L -14.10814 -11.476 L -11.8557 -13.65593 L -9.60326 -16.85916 L -7.3508 -22.02492 L -5.09836 -31.75616 L -2.84592 -56.89722  " fill="none"></path>
 <path d=" M -56.9046 -5.69046 L -54.77068 -5.91212 L -52.63675 -6.15187 L -50.50282 -6.41174 L -48.36891 -6.69455 L -46.23499 -7.00366 L -44.10106 -7.34247 L -41.96713 -7.71593 L -39.83322 -8.12915 L -37.6993 -8.58943 L -35.56537 -9.10477 L -33.43144 -9.68591 L -31.29753 -10.34625 L -29.1636 -11.10332 L -27.02968 -11.97995 L -24.89575 -13.00671 L -22.76184 -14.22615 L -20.62791 -15.69772 L -18.49399 -17.50917 L -16.36006 -19.79295 L -14.22615 -22.76184 L -12.09222 -26.77875 L -9.9583 -32.51643 L -7.82437 -41.38503 L -5.69046 -56.9046  " fill="none"></path>
 <path d=" M -56.9046 -8.53569 L -54.88928 -8.84914 L -52.87396 -9.1863 L -50.85866 -9.55037 L -48.84334 -9.94449 L -46.82803 -10.37247 L -44.81271 -10.83884 L -42.7974 -11.3493 L -40.78209 -11.91005 L -38.76677 -12.52924 L -36.75146 -13.2164 L -34.73615 -13.98302 L -32.72084 -14.84428 L -30.70552 -15.81877 L -28.6902 -16.92984 L -26.6749 -18.20892 L -24.65958 -19.697 L -22.64427 -21.44992 L -20.62895 -23.54538 L -18.61363 -26.09488 L -16.59833 -29.2631 L -14.58301 -33.30719 L -12.5677 -38.64842 L -10.55238 -46.02902 L -8.53708 -56.89548  " fill="none"></path>
 <path d=" M -55.19743 -11.73283 L -53.37177 -12.13425 L -51.54608 -12.56406 L -49.72041 -13.02538 L -47.89473 -13.52187 L -46.06905 -14.0577 L -44.24338 -14.6379 L -42.4177 -15.26775 L -40.59201 -15.95448 L -38.76634 -16.70573 L -36.94066 -17.53166 L -35.11499 -18.44302 L -33.2893 -19.4545 L -31.46362 -20.58328 L -29.63795 -21.85133 L -27.81227 -23.28568 L -25.9866 -24.92163 L -24.16092 -26.80461 L -22.33524 -28.99576 L -20.50957 -31.57693 L -18.68388 -34.66226 L -16.8582 -38.41615 L -15.03253 -43.08168 L -13.20685 -49.03714 L -11.38118 -56.90286  " fill="none"></path>
 <path d=" M -54.62845 -14.81885 L -52.96878 -15.2832 L -51.30913 -15.77753 L -49.64946 -16.30501 L -47.9898 -16.8688 L -46.33014 -17.47313 L -44.67049 -18.12236 L -43.01083 -18.82169 L -41.35117 -19.57701 L -39.69151 -20.39555 L -38.03185 -21.28564 L -36.3722 -22.25691 L -34.71252 -23.32101 L -33.05287 -24.492 L -31.3932 -25.78688 L -29.73355 -27.22635 L -28.07388 -28.8359 L -26.41423 -30.64769 L -24.75458 -32.70233 L -23.09491 -35.05229 L -21.43526 -37.7664 L -19.77559 -40.93587 L -18.11594 -44.6862 L -16.45627 -49.19301 L -14.79662 -54.71068  " fill="none"></path>
 <path d=" M -54.05937 -17.9698 L -52.56564 -18.48053 L -51.07191 -19.02095 L -49.57819 -19.59402 L -48.08446 -20.20271 L -46.59073 -20.85037 L -45.097 -21.54109 L -43.60327 -22.27907 L -42.10954 -23.06929 L -40.61581 -23.91771 L -39.12209 -24.83098 L -37.62836 -25.81676 L -36.13463 -26.8838 L -34.6409 -28.04315 L -33.14717 -29.30687 L -31.65344 -30.68964 L -30.15971 -32.20993 L -28.66599 -33.88834 L -27.17226 -35.75119 L -25.67853 -37.83075 L -24.1848 -40.16733 L -22.69107 -42.81146 L -21.19734 -45.82854 L -19.70361 -49.30275 L -18.20988 -53.34685  " fill="none"></path>
 <path d=" M -53.49028 -21.18788 L -52.16257 -21.72717 L -50.83487 -22.2946 L -49.50716 -22.89252 L -48.17944 -23.52333 L -46.85173 -24.1901 L -45.52402 -24.89568 L -44.1963 -25.64345 L -42.8686 -26.43767 L -41.5409 -27.2827 L -40.21318 -28.18338 L -38.88547 -29.14572 L -37.55775 -30.17612 L -36.23004 -31.28207 L -34.90234 -32.47198 L -33.57463 -33.75601 L -32.24692 -35.14589 L -30.9192 -36.655 L -29.59149 -38.29971 L -28.2638 -40.09883 L -26.93608 -42.07541 L -25.60837 -44.25684 L -24.28065 -46.67686 L -22.95294 -49.37708 L -21.62523 -52.40865  " fill="none"></path>
 <path d=" M -51.78322 -25.0129 L -50.69255 -25.55115 L -49.60188 -26.11293 L -48.51122 -26.69998 L -47.42055 -27.31422 L -46.32988 -27.95728 L -45.23923 -28.63116 L -44.14856 -29.33856 L -43.05789 -30.08156 L -41.96722 -30.86346 L -40.87656 -31.68687 L -39.78589 -32.55551 L -38.69522 -33.47304 L -37.60455 -34.44405 L -36.5139 -35.4729 L -35.42323 -36.56503 L -34.33257 -37.72664 L -33.2419 -38.96448 L -32.15123 -40.28621 L -31.06056 -41.70084 L -29.9699 -43.21843 L -28.87923 -44.85066 L -27.78857 -46.61104 L -26.6979 -48.51512 L -25.60724 -50.58167  " fill="none"></path>
 <path d=" M -49.50697 -29.43338 L -48.74826 -29.8915 L -47.98955 -30.36401 L -47.23083 -30.85191 L -46.4721 -31.35553 L -45.7134 -31.87598 L -44.95468 -32.41397 L -44.19597 -32.97038 L -43.43724 -33.54633 L -42.67853 -34.14267 L -41.91982 -34.76064 L -41.1611 -35.40135 L -40.40237 -36.06621 L -39.64366 -36.75624 L -38.88495 -37.47362 L -38.12624 -38.2194 L -37.36752 -38.99532 L -36.6088 -39.80351 L -35.85008 -40.64594 L -35.09137 -41.52483 L -34.33266 -42.44244 L -33.57393 -43.40138 L -32.81522 -44.40497 L -32.0565 -45.45595 L -31.29779 -46.5579  " fill="none"></path>
 <path d=" M 56.9046 0.56898 L 54.55733 0.59348 L 52.21007 0.62021 L 49.86281 0.64938 L 47.51555 0.68143 L 45.16827 0.71686 L 42.82101 0.7562 L 40.47375 0.79996 L 38.1265 0.84927 L 35.77924 0.90501 L 33.43196 0.96858 L 31.0847 1.0416 L 28.73744 1.1267 L 26.39018 1.22707 L 24.04292 1.34673 L 21.69565 1.49251 L 19.34839 1.67363 L 17.00113 1.90451 L 14.65387 2.20946 L 12.3066 2.63127 L 9.95934 3.25098 L 7.61208 4.25308 L 5.26482 6.1503 L 2.91756 11.09993 L 0.57028 56.78069  " fill="none"></path>
 <path d=" M 56.9046 2.84523 L 54.65215 2.96245 L 52.3997 3.08983 L 50.14726 3.22858 L 47.89482 3.38036 L 45.64236 3.54724 L 43.38992 3.7314 L 41.13748 3.93571 L 38.88504 4.16373 L 36.63258 4.41978 L 34.38014 4.70927 L 32.1277 5.03949 L 29.87526 5.41946 L 27.62282 5.86133 L 25.37036 6.3817 L 23.11792 7.00331 L 20.86548 7.7596 L 18.61304 8.69875 L 16.36058 9.8963 L 14.10814 11.476 L 11.8557 13.65593 L 9.60326 16.85916 L 7.3508 22.02492 L 5.09836 31.75616 L 2.84592 56.89722  " fill="none"></path>
 <path d=" M 56.9046 5.69046 L 54.77068 5.91212 L 52.63675 6.15187 L 50.50282 6.41174 L 48.36891 6.69455 L 46.23499 7.00366 L 44.10106 7.34247 L 41.96713 7.71593 L 39.83322 8.12915 L 37.6993 8.58943 L 35.56537 9.10477 L 33.43144 9.68591 L 31.29753 10.34625 L 29.1636 11.10332 L 27.02968 11.97995 L 24.89575 13.00671 L 22.76184 14.22615 L 20.62791 15.69772 L 18.49399 17.50917 L 16.36006 19.79295 L 14.22615 22.76184 L 12.09222 26.77875 L 9.9583 32.51643 L 7.82437 41.38503 L 5.69046 56.9046  " fill="none"></path>
 <path d=" M 56.9046 8.53569 L 54.88928 8.84914 L 52.87396 9.1863 L 50.85866 9.55037 L 48.84334 9.94449 L 46.82803 10.37247 L 44.81271 10.83884 L 42.7974 11.3493 L 40.78209 11.91005 L 38.76677 12.52924 L 36.75146 13.2164 L 34.73615 13.98302 L 32.72084 14.84428 L 30.70552 15.81877 L 28.6902 16.92984 L 26.6749 18.20892 L 24.65958 19.697 L 22.64427 21.44992 L 20.62895 23.54538 L 18.61363 26.09488 L 16.59833 29.2631 L 14.58301 33.30719 L 12.5677 38.64842 L 10.55238 46.02902 L 8.53708 56.89548  " fill="none"></path>
 <path d=" M 55.19743 11.73283 L 53.37177 12.13425 L 51.54608 12.56406 L 49.72041 13.02538 L 47.89473 13.52187 L 46.06905 14.0577 L 44.24338 14.6379 L 42.4177 15.26775 L 40.59201 15.95448 L 38.76634 16.70573 L 36.94066 17.53166 L 35.11499 18.44302 L 33.2893 19.4545 L 31.46362 20.58328 L 29.63795 21.85133 L 27.81227 23.28568 L 25.9866 24.92163 L 24.16092 26.80461 L 22.33524 28.99576 L 20.50957 31.57693 L 18.68388 34.66226 L 16.8582 38.41615 L 15.03253 43.08168 L 13.20685 49.03714 L 11.38118 56.90286  " fill="none"></path>
 <path d=" M 54.62845 14.81885 L 52.96878 15.2832 L 51.30913 15.77753 L 49.64946 16.30501 L 47.9898 16.8688 L 46.33014 17.47313 L 44.67049 18.12236 L 43.01083 18.82169 L 41.35117 19.57701 L 39.69151 20.39555 L 38.03185 21.28564 L 36.3722 22.25691 L 34.71252 23.32101 L 33.05287 24.492 L 31.3932 25.78688 L 29.73355 27.22635 L 28.07388 28.8359 L 26.41423 30.64769 L 24.75458 32.70233 L 23.09491 35.05229 L 21.43526 37.7664 L 19.77559 40.93587 L 18.11594 44.6862 L 16.45627 49.19301 L 14.79662 54.71068  " fill="none"></path>
 <path d=" M 54.05937 17.9698 L 52.56564 18.48053 L 51.07191 19.02095 L 49.57819 19.59402 L 48.08446 20.20271 L 46.59073 20.85037 L 45.097 21.54109 L 43.60327 22.27907 L 42.10954 23.06929 L 40.61581 23.91771 L 39.12209 24.83098 L 37.62836 25.81676 L 36.13463 26.8838 L 34.6409 28.04315 L 33.14717 29.30687 L 31.65344 30.68964 L 30.15971 32.20993 L 28.66599 33.88834 L 27.17226 35.75119 L 25.67853 37.83075 L 24.1848 40.16733 L 22.69107 42.81146 L 21.19734 45.82854 L 19.70361 49.30275 L 18.20988 53.34685  " fill="none"></path>
 <path d=" M 53.49028 21.18788 L 52.16257 21.72717 L 50.83487 22.2946 L 49.50716 22.89252 L 48.17944 23.52333 L 46.85173 24.1901 L 45.52402 24.89568 L 44.1963 25.64345 L 42.8686 26.43767 L 41.5409 27.2827 L 40.21318 28.18338 L 38.88547 29.14572 L 37.55775 30.17612 L 36.23004 31.28207 L 34.90234 32.47198 L 33.57463 33.75601 L 32.24692 35.14589 L 30.9192 36.655 L 29.59149 38.29971 L 28.2638 40.09883 L 26.93608 42.07541 L 25.60837 44.25684 L 24.28065 46.67686 L 22.95294 49.37708 L 21.62523 52.40865  " fill="none"></path>
 <path d=" M 51.78322 25.0129 L 50.69255 25.55115 L 49.60188 26.11293 L 48.51122 26.69998 L 47.42055 27.31422 L 46.32988 27.95728 L 45.23923 28.63116 L 44.14856 29.33856 L 43.05789 30.08156 L 41.96722 30.86346 L 40.87656 31.68687 L 39.78589 32.55551 L 38.69522 33.47304 L 37.60455 34.44405 L 36.5139 35.4729 L 35.42323 36.56503 L 34.33257 37.72664 L 33.2419 38.96448 L 32.15123 40.28621 L 31.06056 41.70084 L 29.9699 43.21843 L 28.87923 44.85066 L 27.78857 46.61104 L 26.6979 48.51512 L 25.60724 50.58167  " fill="none"></path>
 <path d=" M 49.50697 29.43338 L 48.74826 29.8915 L 47.98955 30.36401 L 47.23083 30.85191 L 46.4721 31.35553 L 45.7134 31.87598 L 44.95468 32.41397 L 44.19597 32.97038 L 43.43724 33.54633 L 42.67853 34.14267 L 41.91982 34.76064 L 41.1611 35.40135 L 40.40237 36.06621 L 39.64366 36.75624 L 38.88495 37.47362 L 38.12624 38.2194 L 37.36752 38.99532 L 36.6088 39.80351 L 35.85008 40.64594 L 35.09137 41.52483 L 34.33266 42.44244 L 33.57393 43.40138 L 32.81522 44.40497 L 32.0565 45.45595 L 31.29779 46.5579  " fill="none"></path>
 <path d=" M -56.9046 0.56898 L -54.55733 0.59348 L -52.21007 0.62021 L -49.86281 0.64938 L -47.51555 0.68143 L -45.16827 0.71686 L -42.82101 0.7562 L -40.47375 0.79996 L -38.1265 0.84927 L -35.77924 0.90501 L -33.43196 0.96858 L -31.0847 1.0416 L -28.73744 1.1267 L -26.39018 1.22707 L -24.04292 1.34673 L -21.69565 1.49251 L -19.34839 1.67363 L -17.00113 1.90451 L -14.65387 2.20946 L -12.3066 2.63127 L -9.95934 3.25098 L -7.61208 4.25308 L -5.26482 6.1503 L -2.91756 11.09993 L -0.57028 56.78069  " fill="none"></path>
 <path d=" M -56.9046 2.84523 L -54.65215 2.96245 L -52.3997 3.08983 L -50.14726 3.22858 L -47.89482 3.38036 L -45.64236 3.54724 L -43.38992 3.7314 L -41.13748 3.93571 L -38.88504 4.16373 L -36.63258 4.41978 L -34.38014 4.70927 L -32.1277 5.03949 L -29.87526 5.41946 L -27.62282 5.86133 L -25.37036 6.3817 L -23.11792 7.00331 L -20.86548 7.7596 L -18.61304 8.69875 L -16.36058 9.8963 L -14.10814 11.476 L -11.8557 13.65593 L -9.60326 16.85916 L -7.3508 22.02492 L -5.09836 31.75616 L -2.84592 56.89722  " fill="none"></path>
 <path d=" M -56.9046 5.69046 L -54.77068 5.91212 L -52.63675 6.15187 L -50.50282 6.41174 L -48.36891 6.69455 L -46.23499 7.00366 L -44.10106 7.34247 L -41.96713 7.71593 L -39.83322 8.12915 L -37.6993 8.58943 L -35.56537 9.10477 L -33.43144 9.68591 L -31.29753 10.34625 L -29.1636 11.10332 L -27.02968 11.97995 L -24.89575 13.00671 L -22.76184 14.22615 L -20.62791 15.69772 L -18.49399 17.50917 L -16.36006 19.79295 L -14.22615 22.76184 L -12.09222 26.77875 L -9.9583 32.51643 L -7.82437 41.38503 L -5.69046 56.9046  " fill="none"></path>
 <path d=" M -56.9046 8.53569 L -54.88928 8.84914 L -52.87396 9.1863 L -50.85866 9.55037 L -48.84334 9.94449 L -46.82803 10.37247 L -44.81271 10.83884 L -42.7974 11.3493 L -40.78209 11.91005 L -38.76677 12.52924 L -36.75146 13.2164 L -34.73615 13.98302 L -32.72084 14.84428 L -30.70552 15.81877 L -28.6902 16.92984 L -26.6749 18.20892 L -24.65958 19.697 L -22.64427 21.44992 L -20.62895 23.54538 L -18.61363 26.09488 L -16.59833 29.2631 L -14.58301 33.30719 L -12.5677 38.64842 L -10.55238 46.02902 L -8.53708 56.89548  " fill="none"></path>
 <path d=" M -55.19743 11.73283 L -53.37177 12.13425 L -51.54608 12.56406 L -49.72041 13.02538 L -47.89473 13.52187 L -46.06905 14.0577 L -44.24338 14.6379 L -42.4177 15.26775 L -40.59201 15.95448 L -38.76634 16.70573 L -36.94066 17.53166 L -35.11499 18.44302 L -33.2893 19.4545 L -31.46362 20.58328 L -29.63795 21.85133 L -27.81227 23.28568 L -25.9866 24.92163 L -24.16092 26.80461 L -22.33524 28.99576 L -20.50957 31.57693 L -18.68388 34.66226 L -16.8582 38.41615 L -15.03253 43.08168 L -13.20685 49.03714 L -11.38118 56.90286  " fill="none"></path>
 <path d=" M -54.62845 14.81885 L -52.96878 15.2832 L -51.30913 15.77753 L -49.64946 16.30501 L -47.9898 16.8688 L -46.33014 17.47313 L -44.67049 18.12236 L -43.01083 18.82169 L -41.35117 19.57701 L -39.69151 20.39555 L -38.03185 21.28564 L -36.3722 22.25691 L -34.71252 23.32101 L -33.05287 24.492 L -31.3932 25.78688 L -29.73355 27.22635 L -28.07388 28.8359 L -26.41423 30.64769 L -24.75458 32.70233 L -23.09491 35.05229 L -21.43526 37.7664 L -19.77559 40.93587 L -18.11594 44.6862 L -16.45627 49.19301 L -14.79662 54.71068  " fill="none"></path>
 <path d=" M -54.05937 17.9698 L -52.56564 18.48053 L -51.07191 19.02095 L -49.57819 19.59402 L -48.08446 20.20271 L -46.59073 20.85037 L -45.097 21.54109 L -43.60327 22.27907 L -42.10954 23.06929 L -40.61581 23.91771 L -39.12209 24.83098 L -37.62836 25.81676 L -36.13463 26.8838 L -34.6409 28.04315 L -33.14717 29.30687 L -31.65344 30.68964 L -30.15971 32.20993 L -28.66599 33.88834 L -27.17226 35.75119 L -25.67853 37.83075 L -24.1848 40.16733 L -22.69107 42.81146 L -21.19734 45.82854 L -19.70361 49.30275 L -18.20988 53.34685  " fill="none"></path>
 <path d=" M -53.49028 21.18788 L -52.16257 21.72717 L -50.83487 22.2946 L -49.50716 22.89252 L -48.17944 23.52333 L -46.85173 24.1901 L -45.52402 24.89568 L -44.1963 25.64345 L -42.8686 26.43767 L -41.5409 27.2827 L -40.21318 28.18338 L -38.88547 29.14572 L -37.55775 30.17612 L -36.23004 31.28207 L -34.90234 32.47198 L -33.57463 33.75601 L -32.24692 35.14589 L -30.9192 36.655 L -29.59149 38.29971 L -28.2638 40.09883 L -26.93608 42.07541 L -25.60837 44.25684 L -24.28065 46.67686 L -22.95294 49.37708 L -21.62523 52.40865  " fill="none"></path>
 <path d=" M -51.78322 25.0129 L -50.69255 25.55115 L -49.60188 26.11293 L -48.51122 26.69998 L -47.42055 27.31422 L -46.32988 27.95728 L -45.23923 28.63116 L -44.14856 29.33856 L -43.05789 30.08156 L -41.96722 30.86346 L -40.87656 31.68687 L -39.78589 32.55551 L -38.69522 33.47304 L -37.60455 34.44405 L -36.5139 35.4729 L -35.42323 36.56503 L -34.33257 37.72664 L -33.2419 38.96448 L -32.15123 40.28621 L -31.06056 41.70084 L -29.9699 43.21843 L -28.87923 44.85066 L -27.78857 46.61104 L -26.6979 48.51512 L -25.60724 50.58167  " fill="none"></path>
 <path d=" M -49.50697 29.43338 L -48.74826 29.8915 L -47.98955 30.36401 L -47.23083 30.85191 L -46.4721 31.35553 L -45.7134 31.87598 L -44.95468 32.41397 L -44.19597 32.97038 L -43.43724 33.54633 L -42.67853 34.14267 L -41.91982 34.76064 L -41.1611 35.40135 L -40.40237 36.06621 L -39.64366 36.75624 L -38.88495 37.47362 L -38.12624 38.2194 L -37.36752 38.99532 L -36.6088 39.80351 L -35.85008 40.64594 L -35.09137 41.52483 L -34.33266 42.44244 L -33.57393 43.40138 L -32.81522 44.40497 L -32.0565 45.45595 L -31.29779 46.5579  " fill="none"></path>
 <path d=" M 56.9046 -0.56898 L 54.55733 -0.59348 L 52.21007 -0.62021 L 49.86281 -0.64938 L 47.51555 -0.68143 L 45.16827 -0.71686 L 42.82101 -0.7562 L 40.47375 -0.79996 L 38.1265 -0.84927 L 35.77924 -0.90501 L 33.43196 -0.96858 L 31.0847 -1.0416 L 28.73744 -1.1267 L 26.39018 -1.22707 L 24.04292 -1.34673 L 21.69565 -1.49251 L 19.34839 -1.67363 L 17.00113 -1.90451 L 14.65387 -2.20946 L 12.3066 -2.63127 L 9.95934 -3.25098 L 7.61208 -4.25308 L 5.26482 -6.1503 L 2.91756 -11.09993 L 0.57028 -56.78069  " fill="none"></path>
 <path d=" M 56.9046 -2.84523 L 54.65215 -2.96245 L 52.3997 -3.08983 L 50.14726 -3.22858 L 47.89482 -3.38036 L 45.64236 -3.54724 L 43.38992 -3.7314 L 41.13748 -3.93571 L 38.88504 -4.16373 L 36.63258 -4.41978 L 34.38014 -4.70927 L 32.1277 -5.03949 L 29.87526 -5.41946 L 27.62282 -5.86133 L 25.37036 -6.3817 L 23.11792 -7.00331 L 20.86548 -7.7596 L 18.61304 -8.69875 L 16.36058 -9.8963 L 14.10814 -11.476 L 11.8557 -13.65593 L 9.60326 -16.85916 L 7.3508 -22.02492 L 5.09836 -31.75616 L 2.84592 -56.89722  " fill="none"></path>
 <path d=" M 56.9046 -5.69046 L 54.77068 -5.91212 L 52.63675 -6.15187 L 50.50282 -6.41174 L 48.36891 -6.69455 L 46.23499 -7.00366 L 44.10106 -7.34247 L 41.96713 -7.71593 L 39.83322 -8.12915 L 37.6993 -8.58943 L 35.56537 -9.10477 L 33.43144 -9.68591 L 31.29753 -10.34625 L 29.1636 -11.10332 L 27.02968 -11.97995 L 24.89575 -13.00671 L 22.76184 -14.22615 L 20.62791 -15.69772 L 18.49399 -17.50917 L 16.36006 -19.79295 L 14.22615 -22.76184 L 12.09222 -26.77875 L 9.9583 -32.51643 L 7.82437 -41.38503 L 5.69046 -56.9046  " fill="none"></path>
 <path d=" M 56.9046 -8.53569 L 54.88928 -8.84914 L 52.87396 -9.1863 L 50.85866 -9.55037 L 48.84334 -9.94449 L 46.82803 -10.37247 L 44.81271 -10.83884 L 42.7974 -11.3493 L 40.78209 -11.91005 L 38.76677 -12.52924 L 36.75146 -13.2164 L 34.73615 -13.98302 L 32.72084 -14.84428 L 30.70552 -15.81877 L 28.6902 -16.92984 L 26.6749 -18.20892 L 24.65958 -19.697 L 22.64427 -21.44992 L 20.62895 -23.54538 L 18.61363 -26.09488 L 16.59833 -29.2631 L 14.58301 -33.30719 L 12.5677 -38.64842 L 10.55238 -46.02902 L 8.53708 -56.89548  " fill="none"></path>
 <path d=" M 55.19743 -11.73283 L 53.37177 -12.13425 L 51.54608 -12.56406 L 49.72041 -13.02538 L 47.89473 -13.52187 L 46.06905 -14.0577 L 44.24338 -14.6379 L 42.4177 -15.26775 L 40.59201 -15.95448 L 38.76634 -16.70573 L 36.94066 -17.53166 L 35.11499 -18.44302 L 33.2893 -19.4545 L 31.46362 -20.58328 L 29.63795 -21.85133 L 27.81227 -23.28568 L 25.9866 -24.92163 L 24.16092 -26.80461 L 22.33524 -28.99576 L 20.50957 -31.57693 L 18.68388 -34.66226 L 16.8582 -38.41615 L 15.03253 -43.08168 L 13.20685 -49.03714 L 11.38118 -56.90286  " fill="none"></path>
 <path d=" M 54.62845 -14.81885 L 52.96878 -15.2832 L 51.30913 -15.77753 L 49.64946 -16.30501 L 47.9898 -16.8688 L 46.33014 -17.47313 L 44.67049 -18.12236 L 43.01083 -18.82169 L 41.35117 -19.57701 L 39.69151 -20.39555 L 38.03185 -21.28564 L 36.3722 -22.25691 L 34.71252 -23.32101 L 33.05287 -24.492 L 31.3932 -25.78688 L 29.73355 -27.22635 L 28.07388 -28.8359 L 26.41423 -30.64769 L 24.75458 -32.70233 L 23.09491 -35.05229 L 21.43526 -37.7664 L 19.77559 -40.93587 L 18.11594 -44.6862 L 16.45627 -49.19301 L 14.79662 -54.71068  " fill="none"></path>
 <path d=" M 54.05937 -17.9698 L 52.56564 -18.48053 L 51.07191 -19.02095 L 49.57819 -19.59402 L 48.08446 -20.20271 L 46.59073 -20.85037 L 45.097 -21.54109 L 43.60327 -22.27907 L 42.10954 -23.06929 L 40.61581 -23.91771 L 39.12209 -24.83098 L 37.62836 -25.81676 L 36.13463 -26.8838 L 34.6409 -28.04315 L 33.14717 -29.30687 L 31.65344 -30.68964 L 30.15971 -32.20993 L 28.66599 -33.88834 L 27.17226 -35.75119 L 25.67853 -37.83075 L 24.1848 -40.16733 L 22.69107 -42.81146 L 21.19734 -45.82854 L 19.70361 -49.30275 L 18.20988 -53.34685  " fill="none"></path>
 <path d=" M 53.49028 -21.18788 L 52.16257 -21.72717 L 50.83487 -22.2946 L 49.50716 -22.89252 L 48.17944 -23.52333 L 46.85173 -24.1901 L 45.52402 -24.89568 L 44.1963 -25.64345 L 42.8686 -26.43767 L 41.5409 -27.2827 L 40.21318 -28.18338 L 38.88547 -29.14572 L 37.55775 -30.17612 L 36.23004 -31.28207 L 34.90234 -32.47198 L 33.57463 -33.75601 L 32.24692 -35.14589 L 30.9192 -36.655 L 29.59149 -38.29971 L 28.2638 -40.09883 L 26.93608 -42.07541 L 25.60837 -44.25684 L 24.28065 -46.67686 L 22.95294 -49.37708 L 21.62523 -52.40865  " fill="none"></path>
 <path d=" M 51.78322 -25.0129 L 50.69255 -25.55115 L 49.60188 -26.11293 L 48.51122 -26.69998 L 47.42055 -27.31422 L 46.32988 -27.95728 L 45.23923 -28.63116 L 44.14856 -29.33856 L 43.05789 -30.08156 L 41.96722 -30.86346 L 40.87656 -31.68687 L 39.78589 -32.55551 L 38.69522 -33.47304 L 37.60455 -34.44405 L 36.5139 -35.4729 L 35.42323 -36.56503 L 34.33257 -37.72664 L 33.2419 -38.96448 L 32.15123 -40.28621 L 31.06056 -41.70084 L 29.9699 -43.21843 L 28.87923 -44.85066 L 27.78857 -46.61104 L 26.6979 -48.51512 L 25.60724 -50.58167  " fill="none"></path>
 <path d=" M 49.50697 -29.43338 L 48.74826 -29.8915 L 47.98955 -30.36401 L 47.23083 -30.85191 L 46.4721 -31.35553 L 45.7134 -31.87598 L 44.95468 -32.41397 L 44.19597 -32.97038 L 43.43724 -33.54633 L 42.67853 -34.14267 L 41.91982 -34.76064 L 41.1611 -35.40135 L 40.40237 -36.06621 L 39.64366 -36.75624 L 38.88495 -37.47362 L 38.12624 -38.2194 L 37.36752 -38.99532 L 36.6088 -39.80351 L 35.85008 -40.64594 L 35.09137 -41.52483 L 34.33266 -42.44244 L 33.57393 -43.40138 L 32.81522 -44.40497 L 32.0565 -45.45595 L 31.29779 -46.5579  " fill="none"></path>
 <path d=" M 6.10898 5.27196 L 5.69618 5.68472  " fill="none"></path>
 <g transform="matrix(-0.70712,0.70708,-0.70708,-0.70712,6.109,5.27194)">
 <g stroke-dasharray="none" stroke-dashoffset="0.0">
 <g stroke-linecap="round">
 <g stroke-linejoin="miter">
 <path d=" M -2.91765 1.79997 L 0.2 0.0 L -2.91765 -1.79997  " fill="none"></path>
 </g>
 </g>
 </g>
  </g>
 <path d=" M 6.10898 -5.27196 L 5.69618 -5.68472  " fill="none"></path>
 <g transform="matrix(-0.70712,-0.70708,0.70708,-0.70712,6.109,-5.27194)">
 <g stroke-dasharray="none" stroke-dashoffset="0.0">
 <g stroke-linecap="round">
 <g stroke-linejoin="miter">
 <path d=" M -2.91765 1.79997 L 0.2 0.0 L -2.91765 -1.79997  " fill="none"></path>
 </g>
 </g>
 </g>
  </g>
 <path d=" M -6.10898 5.27196 L -5.69618 5.68472  " fill="none"></path>
 <g transform="matrix(0.70712,0.70708,-0.70708,0.70712,-6.109,5.27194)">
 <g stroke-dasharray="none" stroke-dashoffset="0.0">
 <g stroke-linecap="round">
 <g stroke-linejoin="miter">
 <path d=" M -2.91765 1.79997 L 0.2 0.0 L -2.91765 -1.79997  " fill="none"></path>
 </g>
 </g>
 </g>
  </g>
 <path d=" M -6.10898 -5.27196 L -5.69618 -5.68472  " fill="none"></path>
 <g transform="matrix(0.70712,-0.70708,0.70708,0.70712,-6.109,-5.27194)">
 <g stroke-dasharray="none" stroke-dashoffset="0.0">
 <g stroke-linecap="round">
 <g stroke-linejoin="miter">
 <path d=" M -2.91765 1.79997 L 0.2 0.0 L -2.91765 -1.79997  " fill="none"></path>
 </g>
 </g>
 </g>
  </g>
 </g>
 </g>
             </g> 
</svg> 
